<mxfile host="app.diagrams.net" modified="2023-03-19T00:52:24.456Z" agent="5.0 (Macintosh; Intel Mac OS X 10_15_7) AppleWebKit/537.36 (KHTML, like Gecko) Chrome/111.0.0.0 Safari/537.36" etag="FVbL38ThnTpUcLgeUlJU" version="21.0.7" type="github">
  <diagram name="第 1 页" id="HDRhys7lzUm58w42Q5RW">
    <mxGraphModel dx="1011" dy="537" grid="1" gridSize="10" guides="1" tooltips="1" connect="1" arrows="1" fold="1" page="1" pageScale="1" pageWidth="827" pageHeight="1169" math="0" shadow="0">
      <root>
        <mxCell id="0" />
        <mxCell id="1" parent="0" />
        <mxCell id="Bs3yNAtl0TAtnO_HznIv-48" value="" style="group" vertex="1" connectable="0" parent="1">
          <mxGeometry x="257" y="920" width="570" height="135" as="geometry" />
        </mxCell>
        <mxCell id="Bs3yNAtl0TAtnO_HznIv-49" value="" style="rounded=0;whiteSpace=wrap;html=1;strokeColor=#36393d;fontSize=11;fillColor=#cce5ff;dashed=1;dashPattern=12 12;" vertex="1" parent="Bs3yNAtl0TAtnO_HznIv-48">
          <mxGeometry width="570" height="135" as="geometry" />
        </mxCell>
        <mxCell id="Bs3yNAtl0TAtnO_HznIv-50" value="" style="rounded=0;whiteSpace=wrap;html=1;strokeColor=#000000;fontSize=11;fillColor=default;" vertex="1" parent="Bs3yNAtl0TAtnO_HznIv-48">
          <mxGeometry x="10" y="30" width="170" height="90" as="geometry" />
        </mxCell>
        <mxCell id="Bs3yNAtl0TAtnO_HznIv-51" value="shard0" style="text;html=1;align=center;verticalAlign=middle;resizable=0;points=[];autosize=1;strokeColor=none;fillColor=none;fontSize=11;" vertex="1" parent="Bs3yNAtl0TAtnO_HznIv-48">
          <mxGeometry x="65" y="30" width="60" height="30" as="geometry" />
        </mxCell>
        <mxCell id="Bs3yNAtl0TAtnO_HznIv-52" value="tablet 0" style="rounded=0;whiteSpace=wrap;html=1;strokeColor=#ae4132;fontSize=11;fillColor=#fad9d5;dashed=1;" vertex="1" parent="Bs3yNAtl0TAtnO_HznIv-48">
          <mxGeometry x="20" y="64" width="70" height="50" as="geometry" />
        </mxCell>
        <mxCell id="Bs3yNAtl0TAtnO_HznIv-53" value="tablet 1" style="rounded=0;whiteSpace=wrap;html=1;strokeColor=#ae4132;fontSize=11;fillColor=#fad9d5;dashed=1;" vertex="1" parent="Bs3yNAtl0TAtnO_HznIv-48">
          <mxGeometry x="100" y="64" width="70" height="50" as="geometry" />
        </mxCell>
        <mxCell id="Bs3yNAtl0TAtnO_HznIv-54" value="" style="rounded=0;whiteSpace=wrap;html=1;strokeColor=#000000;fontSize=11;fillColor=default;" vertex="1" parent="Bs3yNAtl0TAtnO_HznIv-48">
          <mxGeometry x="200" y="30" width="170" height="90" as="geometry" />
        </mxCell>
        <mxCell id="Bs3yNAtl0TAtnO_HznIv-55" value="shard1" style="text;html=1;align=center;verticalAlign=middle;resizable=0;points=[];autosize=1;strokeColor=none;fillColor=none;fontSize=11;" vertex="1" parent="Bs3yNAtl0TAtnO_HznIv-48">
          <mxGeometry x="255" y="30" width="60" height="30" as="geometry" />
        </mxCell>
        <mxCell id="Bs3yNAtl0TAtnO_HznIv-56" value="tablet 2" style="rounded=0;whiteSpace=wrap;html=1;strokeColor=#36393d;fontSize=11;fillColor=#f9f7ed;dashed=1;" vertex="1" parent="Bs3yNAtl0TAtnO_HznIv-48">
          <mxGeometry x="210" y="64" width="70" height="50" as="geometry" />
        </mxCell>
        <mxCell id="Bs3yNAtl0TAtnO_HznIv-57" value="tablet 3" style="rounded=0;whiteSpace=wrap;html=1;strokeColor=#36393d;fontSize=11;fillColor=#f9f7ed;dashed=1;" vertex="1" parent="Bs3yNAtl0TAtnO_HznIv-48">
          <mxGeometry x="290" y="64" width="70" height="50" as="geometry" />
        </mxCell>
        <mxCell id="Bs3yNAtl0TAtnO_HznIv-58" value="" style="rounded=0;whiteSpace=wrap;html=1;strokeColor=#000000;fontSize=11;fillColor=default;" vertex="1" parent="Bs3yNAtl0TAtnO_HznIv-48">
          <mxGeometry x="390" y="30" width="170" height="90" as="geometry" />
        </mxCell>
        <mxCell id="Bs3yNAtl0TAtnO_HznIv-59" value="shard2" style="text;html=1;align=center;verticalAlign=middle;resizable=0;points=[];autosize=1;strokeColor=none;fillColor=none;fontSize=11;" vertex="1" parent="Bs3yNAtl0TAtnO_HznIv-48">
          <mxGeometry x="445" y="30" width="60" height="30" as="geometry" />
        </mxCell>
        <mxCell id="Bs3yNAtl0TAtnO_HznIv-60" value="tablet 4" style="rounded=0;whiteSpace=wrap;html=1;strokeColor=#666666;fontSize=11;fillColor=#f5f5f5;dashed=1;fontColor=#333333;" vertex="1" parent="Bs3yNAtl0TAtnO_HznIv-48">
          <mxGeometry x="400" y="64" width="70" height="50" as="geometry" />
        </mxCell>
        <mxCell id="Bs3yNAtl0TAtnO_HznIv-61" value="tablet 5" style="rounded=0;whiteSpace=wrap;html=1;strokeColor=#666666;fontSize=11;fillColor=#f5f5f5;dashed=1;fontColor=#333333;" vertex="1" parent="Bs3yNAtl0TAtnO_HznIv-48">
          <mxGeometry x="480" y="64" width="70" height="50" as="geometry" />
        </mxCell>
        <mxCell id="Bs3yNAtl0TAtnO_HznIv-62" value="clickhouse cluster" style="text;html=1;strokeColor=none;fillColor=none;align=center;verticalAlign=middle;whiteSpace=wrap;rounded=0;fontSize=11;" vertex="1" parent="Bs3yNAtl0TAtnO_HznIv-48">
          <mxGeometry x="230" width="100" height="30" as="geometry" />
        </mxCell>
        <mxCell id="Bs3yNAtl0TAtnO_HznIv-63" value="" style="rounded=0;whiteSpace=wrap;html=1;strokeColor=#000000;fontSize=11;fillColor=default;" vertex="1" parent="1">
          <mxGeometry x="340" y="600" width="380" height="60" as="geometry" />
        </mxCell>
        <mxCell id="Bs3yNAtl0TAtnO_HznIv-64" value="性别=男bitmap" style="text;html=1;strokeColor=none;fillColor=none;align=center;verticalAlign=middle;whiteSpace=wrap;rounded=0;fontSize=11;" vertex="1" parent="1">
          <mxGeometry x="260" y="600" width="60" height="60" as="geometry" />
        </mxCell>
        <mxCell id="Bs3yNAtl0TAtnO_HznIv-65" value="0" style="rounded=0;whiteSpace=wrap;html=1;strokeColor=#ae4132;fontSize=11;fillColor=#fad9d5;" vertex="1" parent="1">
          <mxGeometry x="340" y="600" width="30" height="60" as="geometry" />
        </mxCell>
        <mxCell id="Bs3yNAtl0TAtnO_HznIv-66" value="1" style="rounded=0;whiteSpace=wrap;html=1;strokeColor=#ae4132;fontSize=11;fillColor=#fad9d5;" vertex="1" parent="1">
          <mxGeometry x="370" y="600" width="30" height="60" as="geometry" />
        </mxCell>
        <mxCell id="Bs3yNAtl0TAtnO_HznIv-67" value="2" style="rounded=0;whiteSpace=wrap;html=1;strokeColor=#36393d;fontSize=11;fillColor=#f9f7ed;" vertex="1" parent="1">
          <mxGeometry x="400" y="600" width="30" height="60" as="geometry" />
        </mxCell>
        <mxCell id="Bs3yNAtl0TAtnO_HznIv-68" value="3" style="rounded=0;whiteSpace=wrap;html=1;strokeColor=#36393d;fontSize=11;fillColor=#f9f7ed;" vertex="1" parent="1">
          <mxGeometry x="430" y="600" width="30" height="60" as="geometry" />
        </mxCell>
        <mxCell id="Bs3yNAtl0TAtnO_HznIv-69" value="4" style="rounded=0;whiteSpace=wrap;html=1;strokeColor=#36393d;fontSize=11;fillColor=#eeeeee;" vertex="1" parent="1">
          <mxGeometry x="460" y="600" width="30" height="60" as="geometry" />
        </mxCell>
        <mxCell id="Bs3yNAtl0TAtnO_HznIv-70" value="5" style="rounded=0;whiteSpace=wrap;html=1;strokeColor=#36393d;fontSize=11;fillColor=#eeeeee;" vertex="1" parent="1">
          <mxGeometry x="490" y="600" width="30" height="60" as="geometry" />
        </mxCell>
        <mxCell id="Bs3yNAtl0TAtnO_HznIv-71" value="6" style="rounded=0;whiteSpace=wrap;html=1;strokeColor=#ae4132;fontSize=11;fillColor=#fad9d5;" vertex="1" parent="1">
          <mxGeometry x="520" y="600" width="30" height="60" as="geometry" />
        </mxCell>
        <mxCell id="Bs3yNAtl0TAtnO_HznIv-72" value="7" style="rounded=0;whiteSpace=wrap;html=1;strokeColor=#ae4132;fontSize=11;fillColor=#fad9d5;" vertex="1" parent="1">
          <mxGeometry x="550" y="600" width="30" height="60" as="geometry" />
        </mxCell>
        <mxCell id="Bs3yNAtl0TAtnO_HznIv-73" value="8" style="rounded=0;whiteSpace=wrap;html=1;strokeColor=#36393d;fontSize=11;fillColor=#f9f7ed;" vertex="1" parent="1">
          <mxGeometry x="580" y="600" width="30" height="60" as="geometry" />
        </mxCell>
        <mxCell id="Bs3yNAtl0TAtnO_HznIv-74" value="9" style="rounded=0;whiteSpace=wrap;html=1;strokeColor=#36393d;fontSize=11;fillColor=#f9f7ed;" vertex="1" parent="1">
          <mxGeometry x="610" y="600" width="30" height="60" as="geometry" />
        </mxCell>
        <mxCell id="Bs3yNAtl0TAtnO_HznIv-75" value="......." style="text;html=1;align=center;verticalAlign=middle;resizable=0;points=[];autosize=1;strokeColor=none;fillColor=none;fontSize=11;" vertex="1" parent="1">
          <mxGeometry x="660" y="615" width="40" height="30" as="geometry" />
        </mxCell>
        <mxCell id="Bs3yNAtl0TAtnO_HznIv-76" value="" style="endArrow=classic;html=1;rounded=0;strokeColor=#000000;fontSize=11;curved=1;entryX=0.5;entryY=0;entryDx=0;entryDy=0;exitX=1;exitY=1;exitDx=0;exitDy=0;" edge="1" parent="1" source="Bs3yNAtl0TAtnO_HznIv-70" target="Bs3yNAtl0TAtnO_HznIv-52">
          <mxGeometry width="50" height="50" relative="1" as="geometry">
            <mxPoint x="310" y="790" as="sourcePoint" />
            <mxPoint x="360" y="740" as="targetPoint" />
          </mxGeometry>
        </mxCell>
        <mxCell id="Bs3yNAtl0TAtnO_HznIv-77" value="hah(id)=0" style="edgeLabel;html=1;align=center;verticalAlign=middle;resizable=0;points=[];fontSize=11;" vertex="1" connectable="0" parent="Bs3yNAtl0TAtnO_HznIv-76">
          <mxGeometry x="-0.02" y="2" relative="1" as="geometry">
            <mxPoint x="7" y="-30" as="offset" />
          </mxGeometry>
        </mxCell>
        <mxCell id="Bs3yNAtl0TAtnO_HznIv-78" value="" style="endArrow=classic;html=1;rounded=0;strokeColor=#000000;fontSize=11;curved=1;entryX=0.5;entryY=0;entryDx=0;entryDy=0;exitX=0;exitY=1;exitDx=0;exitDy=0;dashed=1;" edge="1" parent="1" source="Bs3yNAtl0TAtnO_HznIv-71" target="Bs3yNAtl0TAtnO_HznIv-53">
          <mxGeometry width="50" height="50" relative="1" as="geometry">
            <mxPoint x="530" y="670" as="sourcePoint" />
            <mxPoint x="295" y="894" as="targetPoint" />
          </mxGeometry>
        </mxCell>
        <mxCell id="Bs3yNAtl0TAtnO_HznIv-79" value="write" style="edgeLabel;html=1;align=center;verticalAlign=middle;resizable=0;points=[];fontSize=11;" vertex="1" connectable="0" parent="Bs3yNAtl0TAtnO_HznIv-78">
          <mxGeometry x="0.0053" relative="1" as="geometry">
            <mxPoint as="offset" />
          </mxGeometry>
        </mxCell>
        <mxCell id="Bs3yNAtl0TAtnO_HznIv-80" value="" style="endArrow=classic;html=1;rounded=0;strokeColor=#000000;fontSize=11;curved=1;entryX=0.5;entryY=0;entryDx=0;entryDy=0;exitX=0;exitY=1;exitDx=0;exitDy=0;dashed=1;" edge="1" parent="1" source="Bs3yNAtl0TAtnO_HznIv-71" target="Bs3yNAtl0TAtnO_HznIv-56">
          <mxGeometry width="50" height="50" relative="1" as="geometry">
            <mxPoint x="530" y="670" as="sourcePoint" />
            <mxPoint x="402" y="994" as="targetPoint" />
          </mxGeometry>
        </mxCell>
        <mxCell id="Bs3yNAtl0TAtnO_HznIv-81" value="write" style="edgeLabel;html=1;align=center;verticalAlign=middle;resizable=0;points=[];fontSize=11;" vertex="1" connectable="0" parent="Bs3yNAtl0TAtnO_HznIv-80">
          <mxGeometry x="0.0687" y="-2" relative="1" as="geometry">
            <mxPoint as="offset" />
          </mxGeometry>
        </mxCell>
        <mxCell id="Bs3yNAtl0TAtnO_HznIv-82" value="" style="endArrow=classic;html=1;rounded=0;strokeColor=#000000;fontSize=11;curved=1;entryX=0.5;entryY=0;entryDx=0;entryDy=0;exitX=1;exitY=1;exitDx=0;exitDy=0;dashed=1;" edge="1" parent="1" source="Bs3yNAtl0TAtnO_HznIv-70" target="Bs3yNAtl0TAtnO_HznIv-57">
          <mxGeometry width="50" height="50" relative="1" as="geometry">
            <mxPoint x="540" y="680" as="sourcePoint" />
            <mxPoint x="412" y="1004" as="targetPoint" />
          </mxGeometry>
        </mxCell>
        <mxCell id="Bs3yNAtl0TAtnO_HznIv-83" value="write" style="edgeLabel;html=1;align=center;verticalAlign=middle;resizable=0;points=[];fontSize=11;" vertex="1" connectable="0" parent="Bs3yNAtl0TAtnO_HznIv-82">
          <mxGeometry x="0.0298" y="-1" relative="1" as="geometry">
            <mxPoint as="offset" />
          </mxGeometry>
        </mxCell>
        <mxCell id="Bs3yNAtl0TAtnO_HznIv-84" value="" style="endArrow=classic;html=1;rounded=0;strokeColor=#000000;fontSize=11;curved=1;entryX=0.5;entryY=0;entryDx=0;entryDy=0;exitX=1;exitY=1;exitDx=0;exitDy=0;dashed=1;" edge="1" parent="1" source="Bs3yNAtl0TAtnO_HznIv-70" target="Bs3yNAtl0TAtnO_HznIv-60">
          <mxGeometry width="50" height="50" relative="1" as="geometry">
            <mxPoint x="530" y="670" as="sourcePoint" />
            <mxPoint x="592" y="994" as="targetPoint" />
          </mxGeometry>
        </mxCell>
        <mxCell id="Bs3yNAtl0TAtnO_HznIv-85" value="write" style="edgeLabel;html=1;align=center;verticalAlign=middle;resizable=0;points=[];fontSize=11;" vertex="1" connectable="0" parent="Bs3yNAtl0TAtnO_HznIv-84">
          <mxGeometry x="-0.0003" y="-2" relative="1" as="geometry">
            <mxPoint as="offset" />
          </mxGeometry>
        </mxCell>
        <mxCell id="Bs3yNAtl0TAtnO_HznIv-86" value="" style="endArrow=classic;html=1;rounded=0;strokeColor=#000000;fontSize=11;curved=1;entryX=0.5;entryY=0;entryDx=0;entryDy=0;exitX=0;exitY=1;exitDx=0;exitDy=0;dashed=1;" edge="1" parent="1" source="Bs3yNAtl0TAtnO_HznIv-71" target="Bs3yNAtl0TAtnO_HznIv-61">
          <mxGeometry width="50" height="50" relative="1" as="geometry">
            <mxPoint x="530" y="670" as="sourcePoint" />
            <mxPoint x="702" y="994" as="targetPoint" />
          </mxGeometry>
        </mxCell>
        <mxCell id="Bs3yNAtl0TAtnO_HznIv-87" value="write" style="edgeLabel;html=1;align=center;verticalAlign=middle;resizable=0;points=[];fontSize=11;" vertex="1" connectable="0" parent="Bs3yNAtl0TAtnO_HznIv-86">
          <mxGeometry x="-0.0419" relative="1" as="geometry">
            <mxPoint y="-1" as="offset" />
          </mxGeometry>
        </mxCell>
        <mxCell id="Bs3yNAtl0TAtnO_HznIv-88" value="" style="group" vertex="1" connectable="0" parent="1">
          <mxGeometry x="360" y="800" width="60" height="30" as="geometry" />
        </mxCell>
        <mxCell id="Bs3yNAtl0TAtnO_HznIv-89" value="" style="rounded=0;whiteSpace=wrap;html=1;strokeColor=#000000;fontSize=11;fillColor=default;" vertex="1" parent="Bs3yNAtl0TAtnO_HznIv-88">
          <mxGeometry width="60" height="30" as="geometry" />
        </mxCell>
        <mxCell id="Bs3yNAtl0TAtnO_HznIv-90" value="0" style="rounded=0;whiteSpace=wrap;html=1;strokeColor=#ae4132;fontSize=11;fillColor=#fad9d5;" vertex="1" parent="Bs3yNAtl0TAtnO_HznIv-88">
          <mxGeometry width="15" height="30" as="geometry" />
        </mxCell>
        <mxCell id="Bs3yNAtl0TAtnO_HznIv-91" value="......." style="text;html=1;align=center;verticalAlign=middle;resizable=0;points=[];autosize=1;strokeColor=none;fillColor=none;fontSize=11;" vertex="1" parent="Bs3yNAtl0TAtnO_HznIv-88">
          <mxGeometry x="14.997500000000002" y="-2" width="40" height="30" as="geometry" />
        </mxCell>
        <mxCell id="Bs3yNAtl0TAtnO_HznIv-92" value="client&lt;br&gt;(聚合结果)" style="rounded=0;whiteSpace=wrap;html=1;strokeColor=#000000;fontSize=11;fillColor=default;" vertex="1" parent="1">
          <mxGeometry x="827" y="600" width="111" height="60" as="geometry" />
        </mxCell>
        <mxCell id="Bs3yNAtl0TAtnO_HznIv-93" value="Actor" style="shape=umlActor;verticalLabelPosition=bottom;verticalAlign=top;html=1;outlineConnect=0;strokeColor=#000000;fontSize=11;fillColor=default;" vertex="1" parent="1">
          <mxGeometry x="1080" y="610" width="30" height="60" as="geometry" />
        </mxCell>
        <mxCell id="Bs3yNAtl0TAtnO_HznIv-94" value="" style="endArrow=classic;html=1;rounded=0;dashed=1;strokeColor=#000000;fontSize=11;curved=1;exitX=0;exitY=1;exitDx=0;exitDy=0;entryX=0.5;entryY=0;entryDx=0;entryDy=0;" edge="1" parent="1" source="Bs3yNAtl0TAtnO_HznIv-92" target="Bs3yNAtl0TAtnO_HznIv-52">
          <mxGeometry width="50" height="50" relative="1" as="geometry">
            <mxPoint x="700" y="830" as="sourcePoint" />
            <mxPoint x="750" y="780" as="targetPoint" />
          </mxGeometry>
        </mxCell>
        <mxCell id="Bs3yNAtl0TAtnO_HznIv-95" value="" style="endArrow=classic;html=1;rounded=0;dashed=1;strokeColor=#000000;fontSize=11;curved=1;exitX=0;exitY=1;exitDx=0;exitDy=0;entryX=0.5;entryY=0;entryDx=0;entryDy=0;" edge="1" parent="1" source="Bs3yNAtl0TAtnO_HznIv-92" target="Bs3yNAtl0TAtnO_HznIv-53">
          <mxGeometry width="50" height="50" relative="1" as="geometry">
            <mxPoint x="837" y="782" as="sourcePoint" />
            <mxPoint x="322" y="994" as="targetPoint" />
          </mxGeometry>
        </mxCell>
        <mxCell id="Bs3yNAtl0TAtnO_HznIv-96" value="" style="endArrow=classic;html=1;rounded=0;dashed=1;strokeColor=#000000;fontSize=11;curved=1;entryX=0.5;entryY=0;entryDx=0;entryDy=0;exitX=0;exitY=1;exitDx=0;exitDy=0;" edge="1" parent="1" source="Bs3yNAtl0TAtnO_HznIv-92" target="Bs3yNAtl0TAtnO_HznIv-56">
          <mxGeometry width="50" height="50" relative="1" as="geometry">
            <mxPoint x="830" y="770" as="sourcePoint" />
            <mxPoint x="332" y="1004" as="targetPoint" />
          </mxGeometry>
        </mxCell>
        <mxCell id="Bs3yNAtl0TAtnO_HznIv-97" value="" style="endArrow=classic;html=1;rounded=0;dashed=1;strokeColor=#000000;fontSize=11;curved=1;exitX=0;exitY=1;exitDx=0;exitDy=0;entryX=0.5;entryY=0;entryDx=0;entryDy=0;" edge="1" parent="1" source="Bs3yNAtl0TAtnO_HznIv-92" target="Bs3yNAtl0TAtnO_HznIv-57">
          <mxGeometry width="50" height="50" relative="1" as="geometry">
            <mxPoint x="857" y="802" as="sourcePoint" />
            <mxPoint x="342" y="1014" as="targetPoint" />
          </mxGeometry>
        </mxCell>
        <mxCell id="Bs3yNAtl0TAtnO_HznIv-98" value="" style="endArrow=classic;html=1;rounded=0;dashed=1;strokeColor=#000000;fontSize=11;curved=1;entryX=0.5;entryY=0;entryDx=0;entryDy=0;exitX=0;exitY=1;exitDx=0;exitDy=0;" edge="1" parent="1" source="Bs3yNAtl0TAtnO_HznIv-92" target="Bs3yNAtl0TAtnO_HznIv-60">
          <mxGeometry width="50" height="50" relative="1" as="geometry">
            <mxPoint x="830" y="770" as="sourcePoint" />
            <mxPoint x="352" y="1024" as="targetPoint" />
          </mxGeometry>
        </mxCell>
        <mxCell id="Bs3yNAtl0TAtnO_HznIv-99" value="" style="endArrow=classic;html=1;rounded=0;dashed=1;strokeColor=#000000;fontSize=11;curved=1;entryX=0.414;entryY=0;entryDx=0;entryDy=0;entryPerimeter=0;exitX=0;exitY=1;exitDx=0;exitDy=0;" edge="1" parent="1" source="Bs3yNAtl0TAtnO_HznIv-92" target="Bs3yNAtl0TAtnO_HznIv-61">
          <mxGeometry width="50" height="50" relative="1" as="geometry">
            <mxPoint x="830" y="770" as="sourcePoint" />
            <mxPoint x="362" y="1034" as="targetPoint" />
          </mxGeometry>
        </mxCell>
        <mxCell id="Bs3yNAtl0TAtnO_HznIv-100" value="&lt;b&gt;并发查询&lt;/b&gt;" style="edgeLabel;html=1;align=center;verticalAlign=middle;resizable=0;points=[];fontSize=11;" vertex="1" connectable="0" parent="Bs3yNAtl0TAtnO_HznIv-99">
          <mxGeometry x="-0.6698" relative="1" as="geometry">
            <mxPoint x="-10" y="-33" as="offset" />
          </mxGeometry>
        </mxCell>
        <mxCell id="Bs3yNAtl0TAtnO_HznIv-101" value="" style="endArrow=classic;html=1;rounded=0;strokeColor=#000000;fontSize=11;curved=1;exitX=0;exitY=0.3333333333333333;exitDx=0;exitDy=0;exitPerimeter=0;" edge="1" parent="1" source="Bs3yNAtl0TAtnO_HznIv-93" target="Bs3yNAtl0TAtnO_HznIv-92">
          <mxGeometry width="50" height="50" relative="1" as="geometry">
            <mxPoint x="1000" y="760" as="sourcePoint" />
            <mxPoint x="1050" y="710" as="targetPoint" />
          </mxGeometry>
        </mxCell>
        <mxCell id="Bs3yNAtl0TAtnO_HznIv-102" value="性别=男的数量？" style="edgeLabel;html=1;align=center;verticalAlign=middle;resizable=0;points=[];fontSize=11;" vertex="1" connectable="0" parent="Bs3yNAtl0TAtnO_HznIv-101">
          <mxGeometry x="0.1041" y="-2" relative="1" as="geometry">
            <mxPoint x="11" y="-12" as="offset" />
          </mxGeometry>
        </mxCell>
        <mxCell id="Bs3yNAtl0TAtnO_HznIv-103" value="分片数6，&lt;br style=&quot;border-color: var(--border-color);&quot;&gt;&lt;span style=&quot;background-color: rgb(255, 255, 255);&quot;&gt;每个分片分别是10,11,12,9,13,14，&lt;/span&gt;&lt;br style=&quot;border-color: var(--border-color);&quot;&gt;&lt;span style=&quot;background-color: rgb(255, 255, 255);&quot;&gt;最终结果为69&lt;/span&gt;" style="text;html=1;align=center;verticalAlign=middle;resizable=0;points=[];autosize=1;strokeColor=none;fillColor=none;fontSize=11;" vertex="1" parent="1">
          <mxGeometry x="860" y="690" width="190" height="50" as="geometry" />
        </mxCell>
      </root>
    </mxGraphModel>
  </diagram>
</mxfile>
